<svg viewBox="0 0 700 420" xmlns="http://www.w3.org/2000/svg">
  <rect width="700" height="420" fill="#F8F7F5"/>
  <rect y="345" width="700" height="75" fill="#E8E4DC"/>
  <line x1="0" y1="362" x2="700" y2="362" stroke="#DDD9D1" stroke-width="0.8"/>
  <line x1="0" y1="379" x2="700" y2="379" stroke="#DDD9D1" stroke-width="0.8"/>
  <line x1="0" y1="396" x2="700" y2="396" stroke="#DDD9D1" stroke-width="0.8"/>
  <rect x="80" y="60" width="180" height="280" fill="#F0EDE8" stroke="#E0DDD8" stroke-width="2"/>
  <line x1="80" y1="115" x2="260" y2="115" stroke="#E0DDD8" stroke-width="1.5"/>
  <line x1="80" y1="170" x2="260" y2="170" stroke="#E0DDD8" stroke-width="1.5"/>
  <line x1="80" y1="225" x2="260" y2="225" stroke="#E0DDD8" stroke-width="1.5"/>
  <line x1="80" y1="280" x2="260" y2="280" stroke="#E0DDD8" stroke-width="1.5"/>
  <line x1="170" y1="60" x2="170" y2="340" stroke="#E0DDD8" stroke-width="1.5"/>
  <rect x="310" y="255" width="240" height="90" fill="#E8E5E0" rx="10"/>
  <ellipse cx="430" cy="255" rx="100" ry="12" fill="#DDD9D4"/>
  <rect x="420" y="175" width="18" height="84" fill="#C8C4C0" rx="4"/>
  <ellipse cx="429" cy="173" rx="22" ry="10" fill="#D0CCCA"/>
  <rect x="310" y="180" width="40" height="70" fill="#D8D5D0" rx="4"/>
  <rect x="320" y="195" width="20" height="12" fill="#C8C5C0" rx="2"/>
  <rect x="320" y="215" width="20" height="12" fill="#C8C5C0" rx="2"/>
  <rect x="0" y="0" width="8" height="420" fill="#C07830"/>
  <rect x="560" y="80" width="100" height="200" fill="#E8E5E0" rx="4" stroke="#E0DDD8" stroke-width="1.5"/>
  <rect y="336" width="700" height="11" fill="#E8E3DB"/>
  <text x="26" y="50" font-family="sans-serif" font-size="18" fill="#C07830" font-weight="700">ПОСЛЕ</text>
</svg>
