<svg viewBox="0 0 700 420" xmlns="http://www.w3.org/2000/svg">
  <rect width="700" height="420" fill="#C5B89A"/>
  <rect y="330" width="700" height="90" fill="#7A5E42"/>
  <line x1="0" y1="350" x2="700" y2="350" stroke="#6A4E32" stroke-width="1.2"/>
  <line x1="0" y1="370" x2="700" y2="370" stroke="#6A4E32" stroke-width="1.2"/>
  <line x1="0" y1="390" x2="700" y2="390" stroke="#6A4E32" stroke-width="1.2"/>
  <rect x="60" y="230" width="580" height="100" fill="#8A7050" rx="4"/>
  <rect x="60" y="215" width="580" height="20" fill="#9A8060" rx="2"/>
  <rect x="70" y="230" width="120" height="95" fill="#7A6040" rx="2" stroke="#6A5030" stroke-width="1"/>
  <rect x="200" y="230" width="120" height="95" fill="#7A6040" rx="2" stroke="#6A5030" stroke-width="1"/>
  <rect x="330" y="230" width="120" height="95" fill="#7A6040" rx="2" stroke="#6A5030" stroke-width="1"/>
  <rect x="460" y="230" width="120" height="95" fill="#7A6040" rx="2" stroke="#6A5030" stroke-width="1"/>
  <rect x="70" y="80" width="130" height="130" fill="#7A6040" rx="2" stroke="#6A5030" stroke-width="1"/>
  <rect x="210" y="80" width="130" height="130" fill="#7A6040" rx="2" stroke="#6A5030" stroke-width="1"/>
  <rect x="350" y="80" width="280" height="130" fill="#8A7050" rx="2" stroke="#6A5030" stroke-width="1"/>
  <ellipse cx="240" cy="215" rx="30" ry="8" fill="#9A8060"/>
  <ellipse cx="290" cy="215" rx="18" ry="5" fill="#9A8060"/>
  <path d="M90 100 Q110 120 95 145" stroke="#9A8060" stroke-width="1.5" fill="none"/>
  <text x="28" y="50" font-family="sans-serif" font-size="18" fill="#7A6A50" font-weight="700">ДО</text>
</svg>
