<svg viewBox="0 0 700 420" xmlns="http://www.w3.org/2000/svg">
  <rect width="700" height="420" fill="#F0EBE3"/>
  <rect y="330" width="700" height="90" fill="#C8A068"/>
  <line x1="0" y1="348" x2="700" y2="348" stroke="#B89050" stroke-width="0.8"/>
  <line x1="0" y1="366" x2="700" y2="366" stroke="#B89050" stroke-width="0.8"/>
  <line x1="0" y1="384" x2="700" y2="384" stroke="#B89050" stroke-width="0.8"/>
  <line x1="0" y1="402" x2="700" y2="402" stroke="#B89050" stroke-width="0.8"/>
  <line x1="88" y1="330" x2="88" y2="420" stroke="#B89050" stroke-width="0.5"/>
  <line x1="175" y1="330" x2="175" y2="420" stroke="#B89050" stroke-width="0.5"/>
  <line x1="262" y1="330" x2="262" y2="420" stroke="#B89050" stroke-width="0.5"/>
  <line x1="350" y1="330" x2="350" y2="420" stroke="#B89050" stroke-width="0.5"/>
  <line x1="437" y1="330" x2="437" y2="420" stroke="#B89050" stroke-width="0.5"/>
  <line x1="524" y1="330" x2="524" y2="420" stroke="#B89050" stroke-width="0.5"/>
  <line x1="612" y1="330" x2="612" y2="420" stroke="#B89050" stroke-width="0.5"/>
  <rect x="210" y="45" width="280" height="185" fill="#D0E8F8"/>
  <rect x="210" y="45" width="280" height="185" fill="none" stroke="#DDD8D0" stroke-width="3"/>
  <line x1="350" y1="45" x2="350" y2="230" stroke="#DDD8D0" stroke-width="2"/>
  <line x1="210" y1="137" x2="490" y2="137" stroke="#DDD8D0" stroke-width="1.5"/>
  <rect x="80" y="268" width="330" height="62" fill="#8888A2" rx="12"/>
  <rect x="74" y="255" width="342" height="22" fill="#9898B2" rx="7"/>
  <rect x="70" y="255" width="18" height="75" fill="#9898B2" rx="7"/>
  <rect x="376" y="255" width="18" height="75" fill="#9898B2" rx="7"/>
  <rect x="130" y="328" width="140" height="6" fill="#C8A068" rx="3"/>
  <rect x="142" y="332" width="4" height="24" fill="#B89050"/>
  <rect x="262" y="332" width="4" height="24" fill="#B89050"/>
  <rect y="322" width="700" height="10" fill="#E8E3DB"/>
  <rect x="0" y="0" width="8" height="420" fill="#C07830"/>
  <rect x="520" y="70" width="100" height="70" fill="#EAE5DD" stroke="#D8D3CB" stroke-width="1.5"/>
  <rect x="538" y="88" width="64" height="34" fill="#C07830" opacity="0.2"/>
  <rect x="530" y="175" width="70" height="95" fill="#5E7A5E" opacity="0.3" rx="4"/>
  <rect x="536" y="170" width="58" height="9" fill="#4A6A4A" opacity="0.35" rx="3"/>
  <text x="26" y="50" font-family="sans-serif" font-size="18" fill="#C07830" font-weight="700">ПОСЛЕ</text>
</svg>
